<svg xmlns="http://www.w3.org/2000/svg" style="display: none;">
  <!-- Start Node -->
  <symbol id="icon-start" viewBox="0 0 24 24">
    <circle cx="12" cy="12" r="10" stroke="currentColor" stroke-width="2" fill="none"/>
    <path d="M10 9L16 12L10 15V9Z" fill="currentColor"/>
  </symbol>
  
  <!-- MQTT Connection -->
  <symbol id="icon-mqtt" viewBox="0 0 24 24">
    <path d="M12 2L2 7V12C2 16.5 4.23 20.68 7.62 23.15L12 24L16.38 23.15C19.77 20.68 22 16.5 22 12V7L12 2Z" stroke="currentColor" stroke-width="2" fill="none"/>
    <path d="M8 12H16M12 8V16" stroke="currentColor" stroke-width="2" stroke-linecap="round"/>
  </symbol>
  
  <!-- HTTP Monitor -->
  <symbol id="icon-http" viewBox="0 0 24 24">
    <rect x="3" y="3" width="18" height="12" rx="2" stroke="currentColor" stroke-width="2"/>
    <path d="M8 21H16M12 17V21" stroke="currentColor" stroke-width="2" stroke-linecap="round"/>
    <circle cx="12" cy="9" r="2" fill="currentColor"/>
  </symbol>
  
  <!-- WebSocket Link -->
  <symbol id="icon-websocket" viewBox="0 0 24 24">
    <path d="M10 13C10.4299 13.5741 10.9755 14.0491 11.5999 14.3929C12.2243 14.7366 12.9133 14.9411 13.6216 14.9915C14.3299 15.0419 15.0401 14.9369 15.7075 14.6834C16.3749 14.4298 16.9812 14.0345 17.48 13.53L20.48 10.53C21.3566 9.65333 21.8448 8.46152 21.8448 7.22C21.8448 5.97848 21.3566 4.78667 20.48 3.91C19.6033 3.03337 18.4115 2.5452 17.17 2.5452C15.9285 2.5452 14.7367 3.03337 13.86 3.91L12.07 5.7" stroke="currentColor" stroke-width="2" stroke-linecap="round"/>
    <path d="M14 11C13.5701 10.4259 13.0245 9.95092 12.4001 9.60714C11.7757 9.26336 11.0867 9.0589 10.3784 9.0085C9.67009 8.95809 8.95992 9.06313 8.29252 9.31666C7.62512 9.57019 7.01879 9.96552 6.52001 10.47L3.52001 13.47C2.64337 14.3467 2.15521 15.5385 2.15521 16.78C2.15521 18.0215 2.64337 19.2133 3.52001 20.09C4.39664 20.9666 5.58846 21.4548 6.83001 21.4548C8.07155 21.4548 9.26337 20.9666 10.14 20.09L11.93 18.3" stroke="currentColor" stroke-width="2" stroke-linecap="round"/>
  </symbol>
  
  <!-- File Document -->
  <symbol id="icon-file" viewBox="0 0 24 24">
    <path d="M14 2H6C5.46957 2 4.96086 2.21071 4.58579 2.58579C4.21071 2.96086 4 3.46957 4 4V20C4 20.5304 4.21071 21.0391 4.58579 21.4142C4.96086 21.7893 5.46957 22 6 22H18C18.5304 22 19.0391 21.7893 19.4142 21.4142C19.7893 21.0391 20 20.5304 20 20V8L14 2Z" stroke="currentColor" stroke-width="2" stroke-linecap="round" stroke-linejoin="round"/>
    <path d="M14 2V8H20" stroke="currentColor" stroke-width="2" stroke-linecap="round" stroke-linejoin="round"/>
    <path d="M8 13H16M8 17H13" stroke="currentColor" stroke-width="2" stroke-linecap="round"/>
  </symbol>
  
  <!-- Folder -->
  <symbol id="icon-folder" viewBox="0 0 24 24">
    <path d="M22 19C22 19.5304 21.7893 20.0391 21.4142 20.4142C21.0391 20.7893 20.5304 21 20 21H4C3.46957 21 2.96086 20.7893 2.58579 20.4142C2.21071 20.0391 2 19.5304 2 19V5C2 4.46957 2.21071 3.96086 2.58579 3.58579C2.96086 3.21071 3.46957 3 4 3H9L11 6H20C20.5304 6 21.0391 6.21071 21.4142 6.58579C21.7893 6.96086 22 7.46957 22 8V19Z" stroke="currentColor" stroke-width="2" stroke-linecap="round" stroke-linejoin="round"/>
  </symbol>
  
  <!-- Watch/View -->
  <symbol id="icon-watch" viewBox="0 0 24 24">
    <path d="M1 12C1 12 5 4 12 4C19 4 23 12 23 12C23 12 19 20 12 20C5 20 1 12 1 12Z" stroke="currentColor" stroke-width="2" stroke-linecap="round" stroke-linejoin="round"/>
    <circle cx="12" cy="12" r="3" stroke="currentColor" stroke-width="2"/>
  </symbol>
</svg>
