<svg width="24" height="24" viewBox="0 0 24 24" fill="none" xmlns="http://www.w3.org/2000/svg" color="#fff">
  <path d="M10 13C10.4299 13.5741 10.9755 14.0491 11.5999 14.3929C12.2243 14.7366 12.9133 14.9411 13.6216 14.9915C14.3299 15.0419 15.0401 14.9369 15.7075 14.6834C16.3749 14.4298 16.9812 14.0345 17.48 13.53L20.48 10.53C21.3566 9.65333 21.8448 8.46152 21.8448 7.22C21.8448 5.97848 21.3566 4.78667 20.48 3.91C19.6033 3.03337 18.4115 2.5452 17.17 2.5452C15.9285 2.5452 14.7367 3.03337 13.86 3.91L12.07 5.7" stroke="currentColor" stroke-width="2" stroke-linecap="round"/>
  <path d="M14 11C13.5701 10.4259 13.0245 9.95092 12.4001 9.60714C11.7757 9.26336 11.0867 9.0589 10.3784 9.0085C9.67009 8.95809 8.95992 9.06313 8.29252 9.31666C7.62512 9.57019 7.01879 9.96552 6.52001 10.47L3.52001 13.47C2.64337 14.3467 2.15521 15.5385 2.15521 16.78C2.15521 18.0215 2.64337 19.2133 3.52001 20.09C4.39664 20.9666 5.58846 21.4548 6.83001 21.4548C8.07155 21.4548 9.26337 20.9666 10.14 20.09L11.93 18.3" stroke="currentColor" stroke-width="2" stroke-linecap="round"/>
</svg>